<svg width="256" height="256" viewBox="0 0 256 256" fill="none" xmlns="http://www.w3.org/2000/svg">
<g clip-path="url(#clip0_2226_466)">
<path d="M242.758 105.076C239.512 101.911 236.394 100.131 233.648 98.5484C231.577 97.3615 229.773 96.3374 228.039 94.7782C226.015 92.9745 223.548 88.064 222.443 85.1665C222.431 85.1316 222.408 85.0851 222.396 85.0502C216.264 67.2233 207.747 50.8975 197.368 37.3644C178.752 13.1025 156.167 0.186182 132.059 0C131.896 0 131.733 0 131.558 0C105.588 0 80.8045 15.3135 61.7456 43.1593C55.1599 52.7825 49.0513 66.2109 44.595 76.0204C43.5594 78.3011 42.6286 80.3374 41.849 81.9898C40.732 84.3404 39.5568 86.4116 38.242 88.3084L30.4695 18.5716C34.2045 16.9775 36.7061 13.6378 36.4967 9.91418C36.2174 4.93382 31.2026 1.17527 25.3034 1.51273C19.4042 1.85018 14.8431 6.144 15.1224 11.1244C15.3434 14.9411 18.3338 18.0247 22.3829 19.1185L25.3732 99.8167L24.9311 100.084C21.3241 102.272 17.6007 104.529 14.9595 107.066C11.399 110.499 8.79269 115.654 7.40807 121.984C4.1036 137.135 6.13981 161.338 18.5897 167.366C27.9563 171.904 35.1935 179.875 39.5335 190.441C55.0436 231.273 89.6241 255.779 132.059 255.988C132.245 255.988 132.419 255.988 132.605 255.988C161.706 255.988 187.746 244.271 205.967 222.941C219.103 207.581 227.609 187.985 231.053 166.179C231.879 162.502 235.637 158.639 239.279 154.903C243.375 150.703 247.599 146.362 249.286 140.87C251.182 134.656 250.112 112.221 242.77 105.053L242.758 105.076ZM217.742 162.106C216.474 171.462 214.251 179.84 211.471 186.473C210.842 187.939 209.946 189.265 208.794 190.394C205.606 193.513 201.813 196.468 197.299 199.028C181.277 208.105 159.949 213.097 139.459 213.341C167.07 216.087 189.514 210.106 201.476 205.766C199.579 208.605 197.543 211.328 195.344 213.9C179.601 232.32 157.913 242.06 132.605 242.06C132.443 242.06 132.28 242.06 132.105 242.06C95.628 241.873 65.8762 220.684 52.5071 185.379C52.4605 185.274 52.4256 185.158 52.3791 185.053C48.7604 176.279 43.5361 168.867 36.9854 163.06C36.9388 163.002 36.8923 162.956 36.8457 162.897C33.4831 159.604 34.5419 154.775 34.763 152.82C36.4036 137.984 32.2614 126.336 31.0746 123.881C29.7132 121.065 28.3519 122.287 28.6544 123.927C28.9918 125.812 29.3525 128.5 29.5736 131.293C30.4928 142.732 28.41 152.902 25.7804 154.705C25.4546 154.927 25.1289 154.985 24.7798 154.892C24.7332 154.868 24.6867 154.845 24.6402 154.822C21.615 153.356 18.0312 138.624 21.0099 124.975C22.1036 119.971 23.8955 117.818 24.6169 117.12C26.1295 115.654 29.178 113.815 32.1334 112.023L33.0177 111.488C40.2084 107.124 45.4094 102.458 49.5866 96.4422C46.1657 122.426 48.9117 153.297 66.458 176.908C58.8716 163.724 54.6596 147.433 54.4851 128.966C54.0778 88.0756 74.9984 76.16 97.6642 69.3876C123.46 61.6727 162.183 59.7644 185.838 65.0473C190.05 65.9898 193.657 67.1418 196.752 68.4335C199.544 69.5971 201.79 71.7498 203.07 74.4844C204.152 76.8582 205.397 79.7556 206.712 83.1302C207.096 84.1193 206.991 84.3055 206.281 83.3862C205.839 82.816 205.315 82.2109 204.687 81.5709C201.685 78.5454 195.728 74.4145 184.325 71.8662C161.671 66.8044 124.484 68.6662 99.6655 76.0785C80.1296 81.92 61.0824 90.8218 61.4547 128.908C61.827 165.946 79.3966 193.408 108.474 202.356C134.304 210.304 170.211 206.359 193.843 192.966C209.644 184.006 215.427 169.181 217.346 161.967C217.463 161.536 217.917 160.663 217.719 162.129L217.742 162.106ZM235.928 136.809C235.521 138.147 234.288 139.776 232.74 141.51C232.624 133.795 231.937 125.905 230.646 117.935C230.343 116.096 230.017 114.257 229.668 112.419C230.797 113.152 231.879 113.955 232.938 114.991C234.881 117.562 237.185 132.236 235.928 136.809ZM173.12 161.315C173.713 162.118 173.853 163.165 173.492 164.096C173.248 164.736 167.174 179.817 149.023 180.678C148.616 180.701 148.209 180.701 147.813 180.701C133.292 180.701 124.914 168.285 124.565 167.738C123.995 166.877 123.925 165.772 124.379 164.852C124.833 163.921 125.752 163.316 126.776 163.235L170.572 160.128C171.573 160.058 172.527 160.5 173.12 161.303V161.315ZM108.287 115.921L109.172 134.063C109.393 138.519 105.984 142.324 101.527 142.58C97.0126 142.848 93.138 139.38 92.917 134.854L92.0327 116.713C91.8116 112.221 95.279 108.404 99.7586 108.183C104.25 107.962 108.066 111.43 108.287 115.91V115.921ZM187.478 103.831C191.946 103.599 195.763 107.02 196.019 111.488L197.019 128.989C197.275 133.481 193.843 137.321 189.363 137.577C184.872 137.833 181.032 134.4 180.776 129.92L179.776 112.419C179.52 107.916 182.975 104.064 187.478 103.831Z" fill="white"/>
</g>
<defs>
<clipPath id="clip0_2226_466">
<rect width="244.1" height="256" fill="white" transform="translate(6)"/>
</clipPath>
</defs>
</svg>
